<?xml version="1.0" encoding="UTF-8" standalone="no"?><!-- Generator: Gravit.io --><svg xmlns="http://www.w3.org/2000/svg" xmlns:xlink="http://www.w3.org/1999/xlink" style="isolation:isolate" viewBox="0 0 500 500" width="500pt" height="500pt"><defs><clipPath id="_clipPath_3A9ws6KpeLM7gs4nA23n32WWiEymrHap"><rect width="500" height="500"/></clipPath></defs><g clip-path="url(#_clipPath_3A9ws6KpeLM7gs4nA23n32WWiEymrHap)"><rect width="500" height="500" style="fill:rgb(0,0,0)" fill-opacity="0"/><path d=" M 0 0 L 500 0 L 500 500 L 0 500 L 0 0 Z  M 389.415 118.857 C 420.749 159.085 428.828 213.513 422.789 261.901 C 416.751 310.29 396.514 352.559 365.18 385.036 C 333.927 417.594 291.658 440.279 246.044 443.543 C 200.429 446.807 151.633 430.65 120.053 398.173 C 88.474 365.615 74.276 316.818 75.418 269.082 C 76.561 221.428 93.125 174.834 124.705 134.605 C 156.202 94.377 202.796 60.349 253.225 56.433 C 303.735 52.516 358.162 78.546 389.415 118.857 Z " fill-rule="evenodd" fill="rgb(255,255,255)"/></g></svg>