<?xml version="1.0" encoding="UTF-8" standalone="no"?><!-- Generator: Gravit.io --><svg xmlns="http://www.w3.org/2000/svg" xmlns:xlink="http://www.w3.org/1999/xlink" style="isolation:isolate" viewBox="0 0 500 500" width="500pt" height="500pt"><defs><clipPath id="_clipPath_XhY1N2jwUFHUXt8vt8YSzr5AK07uEK3t"><rect width="500" height="500"/></clipPath></defs><g clip-path="url(#_clipPath_XhY1N2jwUFHUXt8vt8YSzr5AK07uEK3t)"><rect width="500" height="500" style="fill:rgb(0,0,0)" fill-opacity="0"/><path d=" M 0 0 L 500 0 L 500 500 L 0 500 L 0 0 Z  M 385.359 141.933 C 414.572 181.509 429.015 225.573 428.28 268.903 C 427.464 312.151 411.471 354.664 382.258 386.08 C 353.045 417.496 310.532 437.815 268.752 436.999 C 227.055 436.264 186.092 414.396 148.8 382.98 C 111.591 351.564 77.972 310.6 72.504 264.17 C 67.037 217.74 89.64 165.76 126.932 126.184 C 164.141 86.608 216.12 59.436 264.101 63.352 C 312.082 67.269 356.146 102.357 385.359 141.933 Z " fill-rule="evenodd" fill="rgb(255,255,255)"/></g></svg>