<?xml version="1.0" encoding="UTF-8" standalone="no"?><!-- Generator: Gravit.io --><svg xmlns="http://www.w3.org/2000/svg" xmlns:xlink="http://www.w3.org/1999/xlink" style="isolation:isolate" viewBox="0 0 500 500" width="500pt" height="500pt"><defs><clipPath id="_clipPath_GbE0DQLjZ0OoDUbgWWnlLqTL1guyaLiD"><rect width="500" height="500"/></clipPath></defs><g clip-path="url(#_clipPath_GbE0DQLjZ0OoDUbgWWnlLqTL1guyaLiD)"><rect width="500" height="500" style="fill:rgb(0,0,0)" fill-opacity="0"/><path d=" M 0 0 L 500 0 L 500 500 L 0 500 L 0 0 Z  M 391.286 116.243 C 426.048 150.352 443.184 202.902 437.145 249.332 C 431.107 295.763 401.813 336.155 367.051 367.163 C 332.208 398.171 291.816 419.795 243.509 427.71 C 195.283 435.544 139.061 429.75 104.707 398.742 C 70.272 367.734 57.624 311.512 62.765 260.43 C 67.824 209.43 90.672 163.408 125.107 129.299 C 159.461 95.19 205.483 72.832 254.688 69.568 C 303.893 66.304 356.443 82.052 391.286 116.243 Z " fill-rule="evenodd" fill="rgb(255,255,255)"/></g></svg>