<?xml version="1.0" encoding="UTF-8" standalone="no"?><!-- Generator: Gravit.io --><svg xmlns="http://www.w3.org/2000/svg" xmlns:xlink="http://www.w3.org/1999/xlink" style="isolation:isolate" viewBox="0 0 500 500" width="500pt" height="500pt"><defs><clipPath id="_clipPath_z5NLz71fbZEpe6Fqr5LCQp8Bs9uqbnTi"><rect width="500" height="500"/></clipPath></defs><g clip-path="url(#_clipPath_z5NLz71fbZEpe6Fqr5LCQp8Bs9uqbnTi)"><rect width="500" height="500" style="fill:rgb(0,0,0)" fill-opacity="0"/><path d=" M 0 0 L 500 0 L 500 500 L 0 500 L 0 0 Z  M 379.326 110.629 C 419.31 148.818 446.728 201.369 448.197 255.306 C 449.666 309.244 425.104 364.65 385.12 400.799 C 345.136 436.948 289.73 453.921 240.28 447.964 C 190.83 442.007 147.419 413.121 113.147 376.972 C 78.875 340.741 53.742 297.33 51.866 251.879 C 49.907 206.509 71.123 159.181 105.395 120.993 C 139.667 82.804 186.995 53.673 236.934 51.061 C 286.792 48.45 339.342 72.359 379.326 110.629 Z " fill-rule="evenodd" fill="rgb(255,255,255)"/></g></svg>