<?xml version="1.0" encoding="UTF-8" standalone="no"?><!-- Generator: Gravit.io --><svg xmlns="http://www.w3.org/2000/svg" xmlns:xlink="http://www.w3.org/1999/xlink" style="isolation:isolate" viewBox="0 0 500 500" width="500pt" height="500pt"><defs><clipPath id="_clipPath_bMzHAfNc96i3c6Lrs5r49hy1Ffg6M4eM"><rect width="500" height="500"/></clipPath></defs><g clip-path="url(#_clipPath_bMzHAfNc96i3c6Lrs5r49hy1Ffg6M4eM)"><rect width="500" height="500" style="fill:rgb(0,0,0)" fill-opacity="0"/><path d=" M 0 0 L 500 0 L 500 500 L 0 500 L 0 0 Z  M 368.805 127.267 C 407.402 159.172 440.858 203.073 446.325 252.36 C 451.792 301.728 429.352 356.563 390.755 390.1 C 352.158 423.72 297.323 436.041 246.323 432.206 C 195.405 428.371 148.24 408.297 113.968 374.76 C 79.696 341.14 58.317 293.976 53.747 242.404 C 49.259 190.752 61.581 134.529 95.853 102.624 C 130.125 70.636 186.347 62.884 236.368 69.086 C 286.307 75.206 330.208 95.28 368.805 127.267 Z " fill-rule="evenodd" fill="rgb(255,255,255)"/></g></svg>