<?xml version="1.0" encoding="UTF-8" standalone="no"?><!-- Generator: Gravit.io --><svg xmlns="http://www.w3.org/2000/svg" xmlns:xlink="http://www.w3.org/1999/xlink" style="isolation:isolate" viewBox="0 0 500 500" width="500pt" height="500pt"><defs><clipPath id="_clipPath_XRibYiztvAbndAmcx3GYuVr2gx6ZSdto"><rect width="500" height="500"/></clipPath></defs><g clip-path="url(#_clipPath_XRibYiztvAbndAmcx3GYuVr2gx6ZSdto)"><rect width="500" height="500" style="fill:rgb(0,0,0)" fill-opacity="0"/><path d=" M 500 0 L 500 500 L 0 500 L 0 0 L 500 0 Z  M 381.143 389.415 C 340.915 420.749 286.487 428.828 238.099 422.789 C 189.71 416.751 147.441 396.514 114.964 365.18 C 82.406 333.927 59.721 291.658 56.457 246.044 C 53.193 200.429 69.35 151.633 101.827 120.053 C 134.385 88.474 183.182 74.276 230.918 75.418 C 278.572 76.561 325.166 93.125 365.395 124.705 C 405.623 156.202 439.651 202.796 443.567 253.225 C 447.484 303.735 421.454 358.162 381.143 389.415 Z " fill-rule="evenodd" fill="rgb(255,255,255)"/></g></svg>