<?xml version="1.0" encoding="UTF-8" standalone="no"?><!-- Generator: Gravit.io --><svg xmlns="http://www.w3.org/2000/svg" xmlns:xlink="http://www.w3.org/1999/xlink" style="isolation:isolate" viewBox="0 0 500 500" width="500pt" height="500pt"><defs><clipPath id="_clipPath_g5sgOAFuy71t1uMmTRms6XQT2nczKTzN"><rect width="500" height="500"/></clipPath></defs><g clip-path="url(#_clipPath_g5sgOAFuy71t1uMmTRms6XQT2nczKTzN)"><rect width="500" height="500" style="fill:rgb(0,0,0)" fill-opacity="0"/><path d=" M 0 0 L 500 0 L 500 500 L 0 500 L 0 0 Z  M 396.219 97.189 C 431.043 129.284 442.681 187.384 439.408 242.119 C 436.044 296.946 417.768 348.317 382.945 384.141 C 348.03 419.873 296.659 439.967 244.196 440.968 C 191.825 441.877 138.453 423.692 106.176 387.96 C 73.898 352.227 62.715 298.855 60.442 243.21 C 58.259 187.657 64.897 129.739 97.174 97.643 C 129.452 65.547 187.37 59.092 245.288 59.001 C 303.296 58.91 361.396 65.093 396.219 97.189 Z " fill-rule="evenodd" fill="rgb(255,255,255)"/></g></svg>