<?xml version="1.0" encoding="UTF-8" standalone="no"?><!-- Generator: Gravit.io --><svg xmlns="http://www.w3.org/2000/svg" xmlns:xlink="http://www.w3.org/1999/xlink" style="isolation:isolate" viewBox="0 0 500 500" width="500pt" height="500pt"><defs><clipPath id="_clipPath_5NbwNWx6zUwGclCYQnRh8XHxlRnZHlHk"><rect width="500" height="500"/></clipPath></defs><g clip-path="url(#_clipPath_5NbwNWx6zUwGclCYQnRh8XHxlRnZHlHk)"><rect width="500" height="500" style="fill:rgb(0,0,0)" fill-opacity="0"/><path d=" M 0 0 L 500 0 L 500 500 L 0 500 L 0 0 Z  M 382.595 113.49 C 414.419 149.802 429.923 197.946 432.29 248.293 C 434.575 298.722 423.64 351.435 391.816 389.461 C 359.992 427.568 307.279 450.987 258.808 446.826 C 210.338 442.582 166.111 410.677 130.859 372.57 C 95.608 334.462 69.415 290.235 67.538 244.05 C 65.579 197.946 87.938 149.802 123.189 113.49 C 158.359 77.178 206.503 52.698 254.565 52.698 C 302.627 52.698 350.771 77.178 382.595 113.49 Z " fill-rule="evenodd" fill="rgb(255,255,255)"/></g></svg>