<?xml version="1.0" encoding="UTF-8" standalone="no"?><!-- Generator: Gravit.io --><svg xmlns="http://www.w3.org/2000/svg" xmlns:xlink="http://www.w3.org/1999/xlink" style="isolation:isolate" viewBox="0 0 500 500" width="500pt" height="500pt"><defs><clipPath id="_clipPath_PtCrMLkyK5RUgwFUbCtHx0LYsn5AMTXW"><rect width="500" height="500"/></clipPath></defs><g clip-path="url(#_clipPath_PtCrMLkyK5RUgwFUbCtHx0LYsn5AMTXW)"><rect width="500" height="500" style="fill:rgb(0,0,0)" fill-opacity="0"/><path d=" M 0 0 L 500 0 L 500 500 L 0 500 L 0 0 Z  M 371.928 115.48 C 402.864 153.247 416.685 201.299 419.257 252.003 C 421.748 302.626 413.15 355.901 382.213 394.712 C 351.277 433.524 298.002 458.032 249.387 453.452 C 200.692 448.952 156.578 415.364 119.615 376.552 C 82.651 337.661 52.84 293.546 47.054 243.646 C 41.269 193.746 59.509 138.06 96.472 100.293 C 133.435 62.527 189.121 42.679 241.03 46.456 C 292.939 50.232 340.991 77.714 371.928 115.48 Z " fill-rule="evenodd" fill="rgb(255,255,255)"/></g></svg>