<?xml version="1.0" encoding="UTF-8" standalone="no"?><!-- Generator: Gravit.io --><svg xmlns="http://www.w3.org/2000/svg" xmlns:xlink="http://www.w3.org/1999/xlink" style="isolation:isolate" viewBox="0 0 500 500" width="500pt" height="500pt"><defs><clipPath id="_clipPath_QnH23D0BtRWupRRqqq0wphLpScoDSEIl"><rect width="500" height="500"/></clipPath></defs><g clip-path="url(#_clipPath_QnH23D0BtRWupRRqqq0wphLpScoDSEIl)"><rect width="500" height="500" style="fill:rgb(0,0,0)" fill-opacity="0"/><path d=" M 0 0 L 500 0 L 500 500 L 0 500 L 0 0 Z  M 390.069 120.373 C 423.375 156.195 444.039 199.035 446.218 243.997 C 448.398 288.877 432.007 335.797 398.701 374.72 C 365.395 413.643 315.261 444.488 261.204 448.16 C 207.148 451.75 149.254 428.249 110.456 389.326 C 71.657 350.403 51.952 296.221 53.696 243.589 C 55.44 190.957 78.632 140.038 117.431 104.216 C 156.229 68.475 210.635 47.912 260.856 51.992 C 310.989 55.99 356.763 84.632 390.069 120.373 Z " fill-rule="evenodd" fill="rgb(255,255,255)"/></g></svg>