<?xml version="1.0" encoding="UTF-8" standalone="no"?><!-- Generator: Gravit.io --><svg xmlns="http://www.w3.org/2000/svg" xmlns:xlink="http://www.w3.org/1999/xlink" style="isolation:isolate" viewBox="0 0 500 500" width="500pt" height="500pt"><defs><clipPath id="_clipPath_5oVtaZWzHxFMRJG8W7JZb8BPoqnK4hTZ"><rect width="500" height="500"/></clipPath></defs><g clip-path="url(#_clipPath_5oVtaZWzHxFMRJG8W7JZb8BPoqnK4hTZ)"><rect width="500" height="500" style="fill:rgb(0,0,0)" fill-opacity="0"/><path d=" M 0 0 L 500 0 L 500 500 L 0 500 L 0 0 Z  M 385.608 119.757 C 422.573 155.661 445.013 207.151 447.706 261.415 C 450.399 315.679 433.344 372.554 396.38 402.664 C 359.333 432.693 302.458 435.876 250.56 430.816 C 198.744 425.676 151.988 412.293 114.86 382.264 C 77.732 352.236 50.232 305.479 52.109 260.517 C 53.904 215.637 85.076 172.552 122.204 136.648 C 159.332 100.744 202.416 72.021 249.744 67.778 C 297.072 63.535 348.562 83.853 385.608 119.757 Z " fill-rule="evenodd" fill="rgb(255,255,255)"/></g></svg>