<?xml version="1.0" encoding="UTF-8" standalone="no"?><!-- Generator: Gravit.io --><svg xmlns="http://www.w3.org/2000/svg" xmlns:xlink="http://www.w3.org/1999/xlink" style="isolation:isolate" viewBox="0 0 500 500" width="500pt" height="500pt"><defs><clipPath id="_clipPath_lU8jfLR9beC3tjPNamu0c9u00IWZSfay"><rect width="500" height="500"/></clipPath></defs><g clip-path="url(#_clipPath_lU8jfLR9beC3tjPNamu0c9u00IWZSfay)"><rect width="500" height="500" style="fill:rgb(0,0,0)" fill-opacity="0"/><path d=" M 0 0 L 500 0 L 500 500 L 0 500 L 0 0 Z  M 413.002 87.375 C 447.808 116.069 459.873 173.455 451.395 222.364 C 442.836 271.272 413.572 311.622 378.847 351.972 C 344.04 392.322 303.691 432.671 256.494 439.519 C 209.378 446.284 155.334 419.629 114.74 379.279 C 74.145 338.929 46.838 284.885 46.023 230.026 C 45.126 175.167 70.64 119.492 111.316 90.799 C 151.91 62.187 207.585 60.557 264.237 59.66 C 320.809 58.845 378.195 58.682 413.002 87.375 Z " fill-rule="evenodd" fill="rgb(255,255,255)"/></g></svg>