<?xml version="1.0" encoding="UTF-8" standalone="no"?><!-- Generator: Gravit.io --><svg xmlns="http://www.w3.org/2000/svg" xmlns:xlink="http://www.w3.org/1999/xlink" style="isolation:isolate" viewBox="0 0 500 500" width="500pt" height="500pt"><defs><clipPath id="_clipPath_Fhd1Wgjc7XSeZ5wOzQKHw6yMi6GZaIAS"><rect width="500" height="500"/></clipPath></defs><g clip-path="url(#_clipPath_Fhd1Wgjc7XSeZ5wOzQKHw6yMi6GZaIAS)"><rect width="500" height="500" style="fill:rgb(0,0,0)" fill-opacity="0"/><path d=" M 0 0 L 500 0 L 500 500 L 0 500 L 0 0 Z  M 404.222 115.436 C 438.33 156.072 452.039 210.744 446.654 259.949 C 441.268 309.154 416.788 353.055 382.679 388.551 C 348.57 424.047 304.67 451.138 260.198 451.872 C 215.644 452.525 170.438 426.74 130.862 391.244 C 91.286 355.748 57.34 310.541 52.77 260.684 C 48.119 210.908 72.844 156.48 112.42 115.844 C 151.996 75.125 206.423 48.279 260.932 48.116 C 315.441 48.034 370.113 74.799 404.222 115.436 Z " fill-rule="evenodd" fill="rgb(255,255,255)"/></g></svg>