<?xml version="1.0" encoding="UTF-8" standalone="no"?><!-- Generator: Gravit.io --><svg xmlns="http://www.w3.org/2000/svg" xmlns:xlink="http://www.w3.org/1999/xlink" style="isolation:isolate" viewBox="0 0 500 500" width="500pt" height="500pt"><defs><clipPath id="_clipPath_A87YV2XJwFBUZ4JIvJ1mEA3qMr0WFLuk"><rect width="500" height="500"/></clipPath></defs><g clip-path="url(#_clipPath_A87YV2XJwFBUZ4JIvJ1mEA3qMr0WFLuk)"><rect width="500" height="500" style="fill:rgb(0,0,0)" fill-opacity="0"/><path d=" M 0 0 L 500 0 L 500 500 L 0 500 L 0 0 Z  M 372.465 145.167 C 408.043 185.151 435.705 228.807 435.134 271.892 C 434.563 314.977 405.758 357.491 370.099 386.54 C 334.521 415.671 292.008 431.42 246.23 434.684 C 200.452 437.948 151.411 428.727 117.792 399.678 C 84.254 370.547 66.057 321.505 64.915 271.321 C 63.772 221.137 79.603 169.729 113.222 129.745 C 146.76 89.761 198.168 61.201 245.659 65.036 C 293.15 68.871 336.806 105.183 372.465 145.167 Z " fill-rule="evenodd" fill="rgb(255,255,255)"/></g></svg>