<?xml version="1.0" encoding="UTF-8" standalone="no"?><!-- Generator: Gravit.io --><svg xmlns="http://www.w3.org/2000/svg" xmlns:xlink="http://www.w3.org/1999/xlink" style="isolation:isolate" viewBox="0 0 500 500" width="500pt" height="500pt"><defs><clipPath id="_clipPath_sTpyx6rFeylOTgtqaebl3msAYqBzrhZi"><rect width="500" height="500"/></clipPath></defs><g clip-path="url(#_clipPath_sTpyx6rFeylOTgtqaebl3msAYqBzrhZi)"><rect width="500" height="500" style="fill:rgb(0,0,0)" fill-opacity="0"/><path d=" M 0 0 L 500 0 L 500 500 L 0 500 L 0 0 Z  M 386.769 102.696 C 423.897 133.214 440.706 190.66 440.625 248.107 C 440.462 305.472 423.57 362.836 386.442 394.66 C 349.314 426.484 291.95 432.768 243.071 424.444 C 194.111 416.04 153.474 393.028 120.59 361.204 C 87.705 329.38 62.409 288.744 59.634 245.414 C 56.86 202.003 76.526 155.899 109.41 125.38 C 142.377 94.944 188.481 80.174 240.378 74.462 C 292.194 68.832 349.641 72.259 386.769 102.696 Z " fill-rule="evenodd" fill="rgb(255,255,255)"/></g></svg>