<?xml version="1.0" encoding="UTF-8" standalone="no"?><!-- Generator: Gravit.io --><svg xmlns="http://www.w3.org/2000/svg" xmlns:xlink="http://www.w3.org/1999/xlink" style="isolation:isolate" viewBox="0 0 500 500" width="500pt" height="500pt"><defs><clipPath id="_clipPath_RixfnlLQ1uobwwDeKN1qvQZQNWjzlQNy"><rect width="500" height="500"/></clipPath></defs><g clip-path="url(#_clipPath_RixfnlLQ1uobwwDeKN1qvQZQNWjzlQNy)"><rect width="500" height="500" style="fill:rgb(0,0,0)" fill-opacity="0"/><path d=" M 0 0 L 500 0 L 500 500 L 0 500 L 0 0 Z  M 375.662 122.91 C 410.179 160.12 430.66 208.835 432.048 258.938 C 433.516 309.04 415.972 360.53 381.456 393.496 C 346.857 426.381 295.368 440.661 243.144 441.314 C 190.92 442.048 138.043 429.074 107.035 396.189 C 76.027 363.222 66.888 310.346 67.948 258.53 C 69.009 206.714 80.188 155.877 111.196 118.667 C 142.204 81.376 193.041 57.63 242.736 58.691 C 292.43 59.752 341.145 85.619 375.662 122.91 Z " fill-rule="evenodd" fill="rgb(255,255,255)"/></g></svg>