<?xml version="1.0" encoding="UTF-8" standalone="no"?><!-- Generator: Gravit.io --><svg xmlns="http://www.w3.org/2000/svg" xmlns:xlink="http://www.w3.org/1999/xlink" style="isolation:isolate" viewBox="0 0 500 500" width="500pt" height="500pt"><defs><clipPath id="_clipPath_epW78akuSE6L2GMMIfKdOtalTjWJAsrt"><rect width="500" height="500"/></clipPath></defs><g clip-path="url(#_clipPath_epW78akuSE6L2GMMIfKdOtalTjWJAsrt)"><rect width="500" height="500" style="fill:rgb(0,0,0)" fill-opacity="0"/><path d=" M 0 0 L 500 0 L 500 500 L 0 500 L 0 0 Z  M 374.009 100.211 C 413.015 137.068 438.807 189.288 438.648 241.27 C 438.489 293.251 412.219 344.994 373.213 384.636 C 334.207 424.359 282.465 451.902 228.652 453.892 C 174.919 455.803 119.197 432.24 89.902 392.517 C 60.528 352.874 57.663 297.152 64.349 248.195 C 71.116 199.239 87.594 156.969 116.888 120.112 C 146.182 83.255 188.452 51.653 235.578 46.717 C 282.783 41.702 335.003 63.354 374.009 100.211 Z " fill-rule="evenodd" fill="rgb(255,255,255)"/></g></svg>