<?xml version="1.0" encoding="UTF-8" standalone="no"?><!-- Generator: Gravit.io --><svg xmlns="http://www.w3.org/2000/svg" xmlns:xlink="http://www.w3.org/1999/xlink" style="isolation:isolate" viewBox="0 0 500 500" width="500pt" height="500pt"><defs><clipPath id="_clipPath_pnlvVUWBfB1XKKyVe83gfTrcQPeSCwZu"><rect width="500" height="500"/></clipPath></defs><g clip-path="url(#_clipPath_pnlvVUWBfB1XKKyVe83gfTrcQPeSCwZu)"><rect width="500" height="500" style="fill:rgb(0,0,0)" fill-opacity="0"/><path d=" M 0 0 L 500 0 L 500 500 L 0 500 L 0 0 Z  M 367.771 130.168 C 405.715 164.848 438.844 207.606 440.15 251.507 C 441.374 295.49 410.692 340.696 372.748 377.253 C 334.804 413.81 289.598 441.798 246.758 439.432 C 204 436.984 163.608 404.262 130.152 367.624 C 96.696 331.067 70.176 290.675 62.26 242.368 C 54.427 194.142 65.116 137.92 98.572 103.24 C 132.028 68.56 188.251 55.422 237.7 62.114 C 287.068 68.886 329.827 95.488 367.771 130.168 Z " fill-rule="evenodd" fill="rgb(255,255,255)"/></g></svg>