<?xml version="1.0" encoding="UTF-8" standalone="no"?><!-- Generator: Gravit.io --><svg xmlns="http://www.w3.org/2000/svg" xmlns:xlink="http://www.w3.org/1999/xlink" style="isolation:isolate" viewBox="0 0 500 500" width="500pt" height="500pt"><defs><clipPath id="_clipPath_z60kP6ZR4ZITgXs3tHrcNiWN0j79BweA"><rect width="500" height="500"/></clipPath></defs><g clip-path="url(#_clipPath_z60kP6ZR4ZITgXs3tHrcNiWN0j79BweA)"><rect width="500" height="500" style="fill:rgb(0,0,0)" fill-opacity="0"/><path d=" M 0 0 L 500 0 L 500 500 L 0 500 L 0 0 Z  M 382.922 140.004 C 416.786 177.132 439.879 221.767 440.858 267.381 C 441.756 312.914 420.621 359.508 386.757 389.292 C 352.893 419.076 306.3 432.05 259.869 431.969 C 213.439 431.887 167.09 418.668 129.554 388.884 C 92.018 359.1 63.295 312.751 59.541 262.649 C 55.788 212.546 77.004 158.69 114.54 121.562 C 152.076 84.434 205.932 64.034 255.137 68.685 C 304.423 73.255 349.058 102.876 382.922 140.004 Z " fill-rule="evenodd" fill="rgb(255,255,255)"/></g></svg>