<?xml version="1.0" encoding="UTF-8" standalone="no"?><!-- Generator: Gravit.io --><svg xmlns="http://www.w3.org/2000/svg" xmlns:xlink="http://www.w3.org/1999/xlink" style="isolation:isolate" viewBox="0 0 500 500" width="500pt" height="500pt"><defs><clipPath id="_clipPath_HaGfNsrzvBp5EeMFRc1fT6NT2Wp2RxCR"><rect width="500" height="500"/></clipPath></defs><g clip-path="url(#_clipPath_HaGfNsrzvBp5EeMFRc1fT6NT2Wp2RxCR)"><rect width="500" height="500" style="fill:rgb(0,0,0)" fill-opacity="0"/><path d=" M 0 0 L 500 0 L 500 500 L 0 500 L 0 0 Z  M 369.643 132.878 C 410.279 166.824 450.508 208.032 452.222 250.872 C 453.935 293.794 417.215 338.429 376.579 372.701 C 335.942 406.973 291.307 430.882 244.06 433.493 C 196.895 436.022 147.038 417.336 109.91 383.064 C 72.782 348.792 48.383 298.934 47.731 248.587 C 47.159 198.158 70.497 147.24 107.625 113.213 C 144.753 79.186 195.671 62.213 241.775 67.109 C 287.798 72.005 329.006 98.851 369.643 132.878 Z " fill-rule="evenodd" fill="rgb(255,255,255)"/></g></svg>